<svg width="520" height="92" viewBox="0 0 520 92" fill="none" xmlns="http://www.w3.org/2000/svg">
<path d="M117.912 75C116.415 75 115.113 74.4792 114.006 73.4375C112.899 72.3958 112.346 71.1263 112.346 69.6289V52.8809C112.346 49.528 112.997 46.3216 114.299 43.2617C115.601 40.2018 117.408 37.5163 119.719 35.2051C122.03 32.8939 124.699 31.1035 127.727 29.834C130.754 28.5319 133.944 27.8809 137.297 27.8809H137.395C139.152 27.8809 140.52 28.3854 141.496 29.3945C142.505 30.3711 143.01 31.6569 143.01 33.252C143.01 34.0007 142.863 34.7168 142.57 35.4004C142.277 36.0514 141.887 36.6211 141.398 37.1094C140.292 38.151 138.957 38.6719 137.395 38.6719H137.15C135.327 38.7044 133.57 39.0788 131.877 39.7949C130.217 40.5111 128.736 41.5039 127.434 42.7734C126.132 44.0755 125.106 45.5566 124.357 47.2168C123.609 48.877 123.218 50.651 123.186 52.5391V69.6289C123.186 71.0938 122.681 72.3633 121.672 73.4375C121.184 73.9258 120.614 74.3164 119.963 74.6094C119.312 74.8698 118.628 75 117.912 75ZM168.4 75.5371C165.178 75.5371 162.102 74.9186 159.172 73.6816C156.242 72.4447 153.671 70.7357 151.457 68.5547C149.243 66.3737 147.518 63.8346 146.281 60.9375C145.044 58.0404 144.426 54.9805 144.426 51.7578C144.426 48.5026 145.044 45.4264 146.281 42.5293C147.518 39.5996 149.243 37.0443 151.457 34.8633C153.671 32.6823 156.242 30.9733 159.172 29.7363C162.102 28.4993 165.178 27.8809 168.4 27.8809C171.59 27.8809 174.634 28.4831 177.531 29.6875C180.428 30.8919 182.984 32.5846 185.197 34.7656C187.378 36.9141 189.104 39.4368 190.373 42.334C191.643 45.2311 192.31 48.2747 192.375 51.4648C192.375 53.0273 191.87 54.2806 190.861 55.2246C189.885 56.1686 188.615 56.6406 187.053 56.6406H156.535C157.349 59.082 158.863 61.1165 161.076 62.7441C163.225 64.3392 165.666 65.1367 168.4 65.1367C169.833 65.1367 171.021 65.0228 171.965 64.7949C172.909 64.5345 173.82 64.1439 174.699 63.623C175.871 62.9395 176.929 62.5977 177.873 62.5977C179.338 62.5977 180.607 63.1673 181.682 64.3066C182.137 64.8275 182.495 65.4297 182.756 66.1133C183.049 66.7969 183.195 67.4967 183.195 68.2129C183.195 69.2871 182.837 70.2799 182.121 71.1914C181.405 72.1029 180.396 72.8841 179.094 73.5352C177.792 74.1862 176.213 74.6745 174.357 75C172.535 75.3581 170.549 75.5371 168.4 75.5371ZM181.242 47.5586C180.852 46.224 180.266 44.987 179.484 43.8477C178.703 42.6758 177.759 41.6667 176.652 40.8203C174.374 39.0951 171.688 38.2324 168.596 38.2324C165.601 38.2324 162.948 39.1276 160.637 40.918C159.562 41.7318 158.635 42.7246 157.854 43.8965C157.105 45.0358 156.551 46.2565 156.193 47.5586H181.242ZM204.387 91.895C202.857 91.895 201.571 91.341 200.529 90.234C200.008 89.7461 199.602 89.1439 199.309 88.4277C199.016 87.7441 198.869 87.0117 198.869 86.2305V51.7578C198.869 48.5352 199.488 45.4753 200.725 42.5781C201.962 39.6484 203.687 37.0768 205.9 34.8633C208.114 32.6497 210.669 30.9408 213.566 29.7363C216.464 28.4993 219.523 27.8809 222.746 27.8809C225.936 27.8809 228.98 28.4993 231.877 29.7363C234.807 30.9733 237.362 32.6823 239.543 34.8633C241.724 37.0768 243.433 39.6484 244.67 42.5781C245.907 45.4753 246.525 48.5352 246.525 51.7578C246.525 54.9805 245.907 58.0404 244.67 60.9375C243.465 63.8021 241.757 66.3411 239.543 68.5547C237.362 70.7357 234.807 72.4447 231.877 73.6816C228.98 74.9186 225.936 75.5371 222.746 75.5371C217.993 75.5371 213.648 74.235 209.709 71.6309V86.2305C209.709 87.8581 209.221 89.209 208.244 90.283C207.3 91.357 206.014 91.895 204.387 91.895ZM222.746 64.6973C224.504 64.6973 226.164 64.3717 227.727 63.7207C229.322 63.0371 230.721 62.0931 231.926 60.8887C233.13 59.6842 234.058 58.3008 234.709 56.7383C235.36 55.1758 235.686 53.5156 235.686 51.7578C235.686 50 235.36 48.3398 234.709 46.7773C234.058 45.2148 233.13 43.8314 231.926 42.627C230.754 41.4551 229.37 40.5436 227.775 39.8926C226.18 39.209 224.504 38.8672 222.746 38.8672C220.988 38.8672 219.312 39.209 217.717 39.8926C216.122 40.5436 214.738 41.4551 213.566 42.627C212.362 43.8314 211.418 45.2148 210.734 46.7773C210.083 48.3398 209.758 50 209.758 51.7578C209.758 53.5156 210.083 55.1758 210.734 56.7383C211.418 58.3008 212.362 59.6842 213.566 60.8887C214.771 62.0931 216.154 63.0371 217.717 63.7207C219.312 64.3717 220.988 64.6973 222.746 64.6973ZM271.477 75C269.165 75 267.001 74.6257 264.982 73.877C262.997 73.0957 261.271 71.9889 259.807 70.5566C258.277 69.0918 257.089 67.3828 256.242 65.4297C255.396 63.444 254.973 61.2793 254.973 58.9355V16.4551C254.973 14.9251 255.477 13.623 256.486 12.5488C257.463 11.5072 258.7 10.9863 260.197 10.9863C261.727 10.9863 263.046 11.5072 264.152 12.5488C265.259 13.6556 265.812 14.9577 265.812 16.4551V58.9355C265.812 60.6608 266.285 61.9954 267.229 62.9395C268.173 63.8509 269.507 64.3229 271.232 64.3555H271.477C273.007 64.3555 274.292 64.8763 275.334 65.918C276.343 66.9271 276.848 68.1966 276.848 69.7266C276.848 71.2891 276.343 72.5586 275.334 73.5352C274.325 74.5117 273.039 75 271.477 75ZM323.967 89.8926C322.404 89.8926 321.118 89.3717 320.109 88.3301C319.133 87.321 318.645 86.0352 318.645 84.4727V69.7266C314.706 73.0469 310.36 74.707 305.607 74.707C302.352 74.707 299.26 74.0885 296.33 72.8516C293.433 71.6146 290.878 69.8893 288.664 67.6758C286.451 65.4948 284.725 62.9395 283.488 60.0098C282.251 57.0801 281.633 53.9876 281.633 50.7324V33.3984C281.633 31.8685 282.17 30.5664 283.244 29.4922C284.318 28.418 285.604 27.8809 287.102 27.8809C288.599 27.8809 289.885 28.418 290.959 29.4922C292.033 30.5664 292.57 31.8685 292.57 33.3984V50.7812C292.57 52.5065 292.912 54.1667 293.596 55.7617C294.279 57.3242 295.24 58.7077 296.477 59.9121C297.681 61.1165 299.064 62.0605 300.627 62.7441C302.222 63.4277 303.882 63.7695 305.607 63.7695C307.268 63.7695 308.863 63.4603 310.393 62.8418C311.955 62.1908 313.339 61.2793 314.543 60.1074C315.78 58.9355 316.757 57.6009 317.473 56.1035C318.189 54.6061 318.579 53.0111 318.645 51.3184V33.3984C318.645 31.8359 319.165 30.5339 320.207 29.4922C321.281 28.418 322.567 27.8809 324.064 27.8809C325.529 27.8809 326.831 28.418 327.971 29.4922C329.045 30.5664 329.582 31.8685 329.582 33.3984V84.4727C329.582 86.0026 329.029 87.2884 327.922 88.3301C326.815 89.3717 325.497 89.8926 323.967 89.8926ZM360.93 75.5371C357.707 75.5371 354.647 74.9349 351.75 73.7305C348.853 72.4935 346.298 70.7682 344.084 68.5547C341.87 66.3737 340.145 63.8346 338.908 60.9375C337.671 58.0404 337.053 54.9805 337.053 51.7578V16.2109C337.053 14.6484 337.574 13.3138 338.615 12.207C339.689 11.1328 340.992 10.5957 342.521 10.5957C344.019 10.5957 345.305 11.1328 346.379 12.207C347.388 13.2812 347.893 14.6159 347.893 16.2109V34.5703C348.999 32.6823 350.806 31.0872 353.312 29.7852C355.852 28.5156 358.391 27.8809 360.93 27.8809C364.12 27.8809 367.163 28.4993 370.061 29.7363C372.99 30.9733 375.546 32.6823 377.727 34.8633C379.908 37.0768 381.617 39.6484 382.854 42.5781C384.09 45.4753 384.709 48.5352 384.709 51.7578C384.709 54.9805 384.09 58.0404 382.854 60.9375C381.649 63.8021 379.94 66.3411 377.727 68.5547C375.546 70.7357 372.99 72.4447 370.061 73.6816C367.163 74.9186 364.12 75.5371 360.93 75.5371ZM360.93 64.6484C362.688 64.6484 364.364 64.3229 365.959 63.6719C367.554 62.9883 368.938 62.0605 370.109 60.8887C371.314 59.6842 372.242 58.3008 372.893 56.7383C373.544 55.1758 373.869 53.5156 373.869 51.7578C373.869 50 373.544 48.3398 372.893 46.7773C372.242 45.2148 371.314 43.8314 370.109 42.627C368.938 41.4551 367.554 40.5436 365.959 39.8926C364.364 39.209 362.688 38.8672 360.93 38.8672C359.172 38.8672 357.495 39.209 355.9 39.8926C354.305 40.5436 352.922 41.4551 351.75 42.627C350.546 43.8314 349.602 45.2148 348.918 46.7773C348.267 48.3398 347.941 50 347.941 51.7578C347.941 53.5156 348.267 55.1758 348.918 56.7383C349.602 58.3008 350.546 59.6842 351.75 60.8887C352.922 62.0605 354.305 62.9883 355.9 63.6719C357.495 64.3229 359.172 64.6484 360.93 64.6484ZM409.66 75C407.349 75 405.184 74.6257 403.166 73.877C401.18 73.0957 399.455 71.9889 397.99 70.5566C396.46 69.0918 395.272 67.3828 394.426 65.4297C393.579 63.444 393.156 61.2793 393.156 58.9355V16.4551C393.156 14.9251 393.661 13.623 394.67 12.5488C395.646 11.5072 396.883 10.9863 398.381 10.9863C399.911 10.9863 401.229 11.5072 402.336 12.5488C403.443 13.6556 403.996 14.9577 403.996 16.4551V58.9355C403.996 60.6608 404.468 61.9954 405.412 62.9395C406.356 63.8509 407.691 64.3229 409.416 64.3555H409.66C411.19 64.3555 412.476 64.8763 413.518 65.918C414.527 66.9271 415.031 68.1966 415.031 69.7266C415.031 71.2891 414.527 72.5586 413.518 73.5352C412.508 74.5117 411.223 75 409.66 75ZM443.4 75.5371C440.275 75.5371 437.313 74.9512 434.514 73.7793C431.714 72.5749 429.257 70.8984 427.141 68.75C425.025 66.6016 423.381 64.1439 422.209 61.377C421.037 58.5775 420.451 55.6152 420.451 52.4902V33.3984C420.451 31.901 420.972 30.6315 422.014 29.5898C423.055 28.5482 424.325 28.0273 425.822 28.0273C427.352 28.0273 428.638 28.5482 429.68 29.5898C430.754 30.6641 431.291 31.9336 431.291 33.3984V52.5879C431.291 54.2806 431.6 55.8594 432.219 57.3242C432.837 58.7891 433.7 60.0749 434.807 61.1816C435.913 62.2884 437.199 63.151 438.664 63.7695C440.129 64.388 441.708 64.6973 443.4 64.6973C445.061 64.6973 446.574 64.388 447.941 63.7695C449.309 63.151 450.497 62.2721 451.506 61.1328C452.482 60.0586 453.231 58.7891 453.752 57.3242C454.273 55.8268 454.533 54.2155 454.533 52.4902V33.3984C454.533 32.6823 454.68 31.9987 454.973 31.3477C455.266 30.6641 455.673 30.0781 456.193 29.5898C457.333 28.5156 458.618 27.9785 460.051 27.9785C461.516 27.9785 462.785 28.5156 463.859 29.5898C464.315 30.0781 464.673 30.6641 464.934 31.3477C465.227 31.9987 465.373 32.6823 465.373 33.3984V52.4902C465.373 55.6478 464.82 58.61 463.713 61.377C462.639 64.1439 461.109 66.6016 459.123 68.75C457.137 70.8984 454.794 72.5749 452.092 73.7793C449.39 74.9512 446.493 75.5371 443.4 75.5371ZM495.842 75.5371C492.619 75.5371 489.543 74.9186 486.613 73.6816C483.684 72.4447 481.112 70.7357 478.898 68.5547C476.685 66.3737 474.96 63.8346 473.723 60.9375C472.486 58.0404 471.867 54.9805 471.867 51.7578C471.867 48.5026 472.486 45.4264 473.723 42.5293C474.96 39.5996 476.685 37.0443 478.898 34.8633C481.112 32.6823 483.684 30.9733 486.613 29.7363C489.543 28.4993 492.619 27.8809 495.842 27.8809C499.032 27.8809 502.076 28.4831 504.973 29.6875C507.87 30.8919 510.425 32.5846 512.639 34.7656C514.82 36.9141 516.545 39.4368 517.814 42.334C519.084 45.2311 519.751 48.2747 519.816 51.4648C519.816 53.0273 519.312 54.2806 518.303 55.2246C517.326 56.1686 516.057 56.6406 514.494 56.6406H483.977C484.79 59.082 486.304 61.1165 488.518 62.7441C490.666 64.3392 493.107 65.1367 495.842 65.1367C497.274 65.1367 498.462 65.0228 499.406 64.7949C500.35 64.5345 501.262 64.1439 502.141 63.623C503.312 62.9395 504.37 62.5977 505.314 62.5977C506.779 62.5977 508.049 63.1673 509.123 64.3066C509.579 64.8275 509.937 65.4297 510.197 66.1133C510.49 66.7969 510.637 67.4967 510.637 68.2129C510.637 69.2871 510.279 70.2799 509.562 71.1914C508.846 72.1029 507.837 72.8841 506.535 73.5352C505.233 74.1862 503.654 74.6745 501.799 75C499.976 75.3581 497.99 75.5371 495.842 75.5371ZM508.684 47.5586C508.293 46.224 507.707 44.987 506.926 43.8477C506.145 42.6758 505.201 41.6667 504.094 40.8203C501.815 39.0951 499.13 38.2324 496.037 38.2324C493.042 38.2324 490.389 39.1276 488.078 40.918C487.004 41.7318 486.076 42.7246 485.295 43.8965C484.546 45.0358 483.993 46.2565 483.635 47.5586H508.684Z" fill="#2569ED"/>
<path d="M90 45C90 69.8456 69.9231 90 45.1731 90H0V45C0 20.1544 20.0769 0 44.8269 0C70.5479 0 90 20.6444 90 45Z" fill="#2569ED"/>
</svg>
